{
  "accessors": [
    {
      "bufferView": 2,
      "componentType": 5126,
      "count": 508,
      "max": [
        0.15040600299835205,
        0.16234099864959717,
        3.9812450408935547
      ],
      "min": [
        -0.12304099649190903,
        -2.0442349910736084,
        0.02948400005698204
      ],
      "type": "VEC3"
    },
    {
      "bufferView": 2,
      "byteOffset": 6096,
      "componentType": 5126,
      "count": 508,
      "max": [
        0.9992462992668152,
        0.9987240433692932,
        0.99748694896698
      ],
      "min": [
        -0.99931800365448,
        -0.9996381402015686,
        -0.9969638586044312
      ],
      "type": "VEC3"
    },
    {
      "bufferView": 1,
      "componentType": 5126,
      "count": 508,
      "max": [
        1.0,
        1.0
      ],
      "min": [
        0.0,
        0.5
      ],
      "type": "VEC2"
    },
    {
      "bufferView": 0,
      "componentType": 5125,
      "count": 2304,
      "type": "SCALAR"
    },
    {
      "bufferView": 2,
      "byteOffset": 12192,
      "componentType": 5126,
      "count": 2660,
      "max": [
        0.47016099095344543,
        0.6110640168190002,
        4.105971813201904
      ],
      "min": [
        -0.47016099095344543,
        -0.2659839987754822,
        2.310236930847168
      ],
      "type": "VEC3"
    },
    {
      "bufferView": 2,
      "byteOffset": 44112,
      "componentType": 5126,
      "count": 2660,
      "max": [
        1.0,
        0.999219536781311,
        0.9670189023017883
      ],
      "min": [
        -1.0,
        -0.9999089241027832,
        -0.9984863996505737
      ],
      "type": "VEC3"
    },
    {
      "bufferView": 1,
      "byteOffset": 4064,
      "componentType": 5126,
      "count": 2660,
      "max": [
        1.0,
        1.0
      ],
      "min": [
        0.0,
        0.0
      ],
      "type": "VEC2"
    },
    {
      "bufferView": 0,
      "byteOffset": 9216,
      "componentType": 5125,
      "count": 9114,
      "type": "SCALAR"
    },
    {
      "bufferView": 2,
      "byteOffset": 76032,
      "componentType": 5126,
      "count": 3370,
      "max": [
        2.056746006011963,
        2.056746006011963,
        3.9730749130249023
      ],
      "min": [
        -2.056746006011963,
        -2.056746006011963,
        0.041749998927116394
      ],
      "type": "VEC3"
    },
    {
      "bufferView": 2,
      "byteOffset": 116472,
      "componentType": 5126,
      "count": 3370,
      "max": [
        1.0,
        0.9999406337738037,
        0.9977883100509644
      ],
      "min": [
        -1.0,
        -0.9999971389770508,
        -0.9999994039535522
      ],
      "type": "VEC3"
    },
    {
      "bufferView": 1,
      "byteOffset": 25344,
      "componentType": 5126,
      "count": 3370,
      "max": [
        1.0,
        0.9351500272750854
      ],
      "min": [
        0.01522000040858984,
        0.0
      ],
      "type": "VEC2"
    },
    {
      "bufferView": 0,
      "byteOffset": 45672,
      "componentType": 5125,
      "count": 13692,
      "type": "SCALAR"
    },
    {
      "bufferView": 2,
      "byteOffset": 156912,
      "componentType": 5126,
      "count": 508,
      "max": [
        0.12304099649190903,
        2.0442349910736084,
        3.9812450408935547
      ],
      "min": [
        -0.158050999045372,
        -0.016385000199079514,
        0.02948400005698204
      ],
      "type": "VEC3"
    },
    {
      "bufferView": 2,
      "byteOffset": 163008,
      "componentType": 5126,
      "count": 508,
      "max": [
        0.99931800365448,
        0.9996381402015686,
        0.99748694896698
      ],
      "min": [
        -0.9992462992668152,
        -0.9987240433692932,
        -0.9969638586044312
      ],
      "type": "VEC3"
    },
    {
      "bufferView": 1,
      "byteOffset": 52304,
      "componentType": 5126,
      "count": 508,
      "max": [
        1.0,
        1.0
      ],
      "min": [
        0.0,
        0.5
      ],
      "type": "VEC2"
    },
    {
      "bufferView": 0,
      "byteOffset": 100440,
      "componentType": 5125,
      "count": 2304,
      "type": "SCALAR"
    },
    {
      "bufferView": 2,
      "byteOffset": 169104,
      "componentType": 5126,
      "count": 508,
      "max": [
        2.0442349910736084,
        0.16234099864959717,
        3.9812450408935547
      ],
      "min": [
        0.07245799899101257,
        -0.12304099649190903,
        0.02948400005698204
      ],
      "type": "VEC3"
    },
    {
      "bufferView": 2,
      "byteOffset": 175200,
      "componentType": 5126,
      "count": 508,
      "max": [
        0.9996381402015686,
        0.9992462992668152,
        0.99748694896698
      ],
      "min": [
        -0.9987240433692932,
        -0.99931800365448,
        -0.9969638586044312
      ],
      "type": "VEC3"
    },
    {
      "bufferView": 1,
      "byteOffset": 56368,
      "componentType": 5126,
      "count": 508,
      "max": [
        1.0,
        1.0
      ],
      "min": [
        0.0,
        0.5
      ],
      "type": "VEC2"
    },
    {
      "bufferView": 0,
      "byteOffset": 109656,
      "componentType": 5125,
      "count": 2304,
      "type": "SCALAR"
    },
    {
      "bufferView": 2,
      "byteOffset": 181296,
      "componentType": 5126,
      "count": 508,
      "max": [
        -0.0702819973230362,
        0.16234099864959717,
        3.9812450408935547
      ],
      "min": [
        -2.0442349910736084,
        -0.016294000670313835,
        0.02948400005698204
      ],
      "type": "VEC3"
    },
    {
      "bufferView": 2,
      "byteOffset": 187392,
      "componentType": 5126,
      "count": 508,
      "max": [
        0.9987240433692932,
        0.99931800365448,
        0.99748694896698
      ],
      "min": [
        -0.9996381402015686,
        -0.9992462992668152,
        -0.9969638586044312
      ],
      "type": "VEC3"
    },
    {
      "bufferView": 1,
      "byteOffset": 60432,
      "componentType": 5126,
      "count": 508,
      "max": [
        1.0,
        1.0
      ],
      "min": [
        0.0,
        0.5
      ],
      "type": "VEC2"
    },
    {
      "bufferView": 0,
      "byteOffset": 118872,
      "componentType": 5125,
      "count": 2304,
      "type": "SCALAR"
    }
  ],
  "asset": {
    "extras": {
      "author": "Matt LeMoine (https://sketchfab.com/Matt_LeMoine)",
      "license": "CC-BY-4.0 (http://creativecommons.org/licenses/by/4.0/)",
      "source": "https://sketchfab.com/3d-models/computer-virus-1e69485d14894a6e96c7457854fb0804",
      "title": "Computer Virus"
    },
    "generator": "Sketchfab-12.67.0",
    "version": "2.0"
  },
  "bufferViews": [
    {
      "buffer": 0,
      "byteLength": 128088,
      "name": "floatBufferViews",
      "target": 34963
    },
    {
      "buffer": 0,
      "byteLength": 64496,
      "byteOffset": 128088,
      "byteStride": 8,
      "name": "floatBufferViews",
      "target": 34962
    },
    {
      "buffer": 0,
      "byteLength": 193488,
      "byteOffset": 192584,
      "byteStride": 12,
      "name": "floatBufferViews",
      "target": 34962
    }
  ],
  "buffers": [
    {
      "byteLength": 386072,
      "uri": "scene.bin"
    }
  ],
  "images": [
    {
      "uri": "textures/ClearPlastic_metallicRoughness.png"
    }
  ],
  "materials": [
    {
      "doubleSided": true,
      "name": "BluePlastic",
      "pbrMetallicRoughness": {
        "baseColorFactor": [
          0.034921,
          0.0721,
          0.8,
          1.0
        ],
        "metallicFactor": 0.0,
        "roughnessFactor": 0.8063508327
      }
    },
    {
      "alphaMode": "BLEND",
      "doubleSided": true,
      "name": "ClearPlastic",
      "pbrMetallicRoughness": {
        "baseColorFactor": [
          0.8,
          0.8,
          0.8,
          0.2
        ],
        "metallicFactor": 0.0,
        "metallicRoughnessTexture": {
          "index": 0
        }
      }
    },
    {
      "doubleSided": true,
      "name": "GrayPlastic",
      "pbrMetallicRoughness": {
        "baseColorFactor": [
          0.073236,
          0.073236,
          0.073236,
          1.0
        ],
        "metallicFactor": 0.0,
        "metallicRoughnessTexture": {
          "index": 0
        }
      }
    },
    {
      "doubleSided": true,
      "name": "GreenPlastic",
      "pbrMetallicRoughness": {
        "baseColorFactor": [
          0.051469,
          0.357957,
          0.02848,
          1.0
        ],
        "metallicFactor": 0.0,
        "roughnessFactor": 0.8063508327
      }
    },
    {
      "doubleSided": true,
      "name": "RedPlastic",
      "pbrMetallicRoughness": {
        "baseColorFactor": [
          0.8,
          0.019047,
          0.019047,
          1.0
        ],
        "metallicFactor": 0.0,
        "roughnessFactor": 0.8063508327
      }
    },
    {
      "doubleSided": true,
      "name": "YellowPlastic",
      "pbrMetallicRoughness": {
        "baseColorFactor": [
          0.8,
          0.667656,
          0.024207,
          1.0
        ],
        "metallicFactor": 0.0,
        "roughnessFactor": 0.8063508327
      }
    }
  ],
  "meshes": [
    {
      "name": "Object_0",
      "primitives": [
        {
          "attributes": {
            "NORMAL": 1,
            "POSITION": 0,
            "TEXCOORD_0": 2
          },
          "indices": 3,
          "material": 0,
          "mode": 4
        }
      ]
    },
    {
      "name": "Object_1",
      "primitives": [
        {
          "attributes": {
            "NORMAL": 5,
            "POSITION": 4,
            "TEXCOORD_0": 6
          },
          "indices": 7,
          "material": 1,
          "mode": 4
        }
      ]
    },
    {
      "name": "Object_2",
      "primitives": [
        {
          "attributes": {
            "NORMAL": 9,
            "POSITION": 8,
            "TEXCOORD_0": 10
          },
          "indices": 11,
          "material": 2,
          "mode": 4
        }
      ]
    },
    {
      "name": "Object_3",
      "primitives": [
        {
          "attributes": {
            "NORMAL": 13,
            "POSITION": 12,
            "TEXCOORD_0": 14
          },
          "indices": 15,
          "material": 3,
          "mode": 4
        }
      ]
    },
    {
      "name": "Object_4",
      "primitives": [
        {
          "attributes": {
            "NORMAL": 17,
            "POSITION": 16,
            "TEXCOORD_0": 18
          },
          "indices": 19,
          "material": 4,
          "mode": 4
        }
      ]
    },
    {
      "name": "Object_5",
      "primitives": [
        {
          "attributes": {
            "NORMAL": 21,
            "POSITION": 20,
            "TEXCOORD_0": 22
          },
          "indices": 23,
          "material": 5,
          "mode": 4
        }
      ]
    }
  ],
  "nodes": [
    {
      "children": [
        1
      ],
      "matrix": [
        1.0,
        0.0,
        0.0,
        0.0,
        0.0,
        2.220446049250313e-16,
        -1.0,
        0.0,
        0.0,
        1.0,
        2.220446049250313e-16,
        0.0,
        0.0,
        0.0,
        0.0,
        1.0
      ],
      "name": "Sketchfab_model"
    },
    {
      "children": [
        2,
        3,
        4,
        5,
        6,
        7
      ],
      "name": "ComputerVirus.obj.cleaner.materialmerger.gles"
    },
    {
      "mesh": 0,
      "name": "Object_2"
    },
    {
      "mesh": 1,
      "name": "Object_3"
    },
    {
      "mesh": 2,
      "name": "Object_4"
    },
    {
      "mesh": 3,
      "name": "Object_5"
    },
    {
      "mesh": 4,
      "name": "Object_6"
    },
    {
      "mesh": 5,
      "name": "Object_7"
    }
  ],
  "samplers": [
    {
      "magFilter": 9729,
      "minFilter": 9987,
      "wrapS": 10497,
      "wrapT": 10497
    }
  ],
  "scene": 0,
  "scenes": [
    {
      "name": "Sketchfab_Scene",
      "nodes": [
        0
      ]
    }
  ],
  "textures": [
    {
      "sampler": 0,
      "source": 0
    }
  ]
}
